# xmcd CD database file
#
# Track frame offsets:
#	150
#	19422
#	41212
#	60331
#	78711
#	93352
#	111375
#	134698
#	153151
#	168895
#	192930
#	212108
#	227085
#	240644
#	260034
#	275842
#
# Disc length: 3911 seconds
#
# Revision: 1
# Processed by: cddbd v1.5PL3 Copyright (c) Steve Scherf et al.
# Submitted via: jetAudio 5
#
DISCID=ea0f4510
DTITLE=Vários - Black Total 2003
DYEAR=1900
DGENRE=
TTITLE0=Cant Hold Us Down
TTITLE1=Dillema
TTITLE2=I'm Real
TTITLE3=I' Want
TTITLE4=In Da Club
TTITLE5=Swing
TTITLE6=What's Love(REMIX)
TTITLE7=Floetic
TTITLE8=You Belong To Me
TTITLE9=Lose Your Self
TTITLE10=All I Have
TTITLE11=Na On Da'n
TTITLE12=What's Up Gangsta
TTITLE13=Let Me Show You The Way
TTITLE14=Stood Up
TTITLE15=I' May Root
EXTD=
EXTT0=
EXTT1=
EXTT2=
EXTT3=
EXTT4=
EXTT5=
EXTT6=
EXTT7=
EXTT8=
EXTT9=
EXTT10=
EXTT11=
EXTT12=
EXTT13=
EXTT14=
EXTT15=
PLAYORDER=
